<?xml version="1.0" encoding="UTF-8" standalone="no"?>
<!DOCTYPE svg PUBLIC "-//W3C//DTD SVG 1.1//EN" "http://www.w3.org/Graphics/SVG/1.1/DTD/svg11.dtd">
<svg width="100%" height="100%" viewBox="0 0 891 163" version="1.1" xmlns="http://www.w3.org/2000/svg" xmlns:xlink="http://www.w3.org/1999/xlink" xml:space="preserve" xmlns:serif="http://www.serif.com/" style="fill-rule:evenodd;clip-rule:evenodd;stroke-linejoin:round;stroke-miterlimit:2;">
    <g transform="matrix(1,0,0,1,-1138.936683,-1976.493756)">
        <g transform="matrix(3.507916,0,0,3.507916,-5042.961478,-2011.296467)">
            <g transform="matrix(50,0,0,50,1821.830115,1182.733221)">
                <path d="M0.269,0.009C0.202,0.009 0.151,-0.009 0.114,-0.045C0.077,-0.081 0.058,-0.13 0.058,-0.192L0.058,-0.5L0.172,-0.5L0.172,-0.215C0.172,-0.174 0.182,-0.143 0.203,-0.122C0.225,-0.101 0.256,-0.091 0.297,-0.091C0.34,-0.091 0.374,-0.102 0.397,-0.124C0.421,-0.146 0.433,-0.177 0.433,-0.217L0.433,-0.5L0.546,-0.5L0.546,-0.114L0.603,-0.114L0.603,-0L0.486,-0L0.486,-0.079L0.451,-0.079C0.432,-0.05 0.408,-0.029 0.378,-0.013C0.349,0.002 0.313,0.009 0.269,0.009Z" style="fill:white;fill-rule:nonzero;"/>
            </g>
            <g transform="matrix(50,0,0,50,1852.788448,1182.733221)">
                <path d="M0.09,-0L0.09,-0.386L0.033,-0.386L0.033,-0.5L0.15,-0.5L0.15,-0.421L0.185,-0.421C0.204,-0.449 0.228,-0.471 0.257,-0.486C0.287,-0.502 0.323,-0.509 0.365,-0.509C0.432,-0.509 0.484,-0.49 0.521,-0.453C0.559,-0.416 0.578,-0.366 0.578,-0.303L0.578,-0L0.465,-0L0.465,-0.283C0.465,-0.324 0.453,-0.355 0.431,-0.377C0.409,-0.398 0.377,-0.409 0.334,-0.409C0.291,-0.409 0.259,-0.398 0.237,-0.377C0.214,-0.355 0.203,-0.324 0.203,-0.283L0.203,-0L0.09,-0Z" style="fill:white;fill-rule:nonzero;"/>
            </g>
            <g transform="matrix(50,0,0,50,1884.580115,1182.733221)">
                <path d="M0.066,-0L0.066,-0.5L0.179,-0.5L0.179,-0L0.066,-0ZM0.123,-0.56C0.104,-0.56 0.089,-0.566 0.076,-0.579C0.064,-0.591 0.057,-0.607 0.057,-0.625C0.057,-0.643 0.064,-0.658 0.076,-0.671C0.089,-0.684 0.104,-0.69 0.122,-0.69C0.141,-0.69 0.156,-0.684 0.169,-0.671C0.181,-0.659 0.188,-0.643 0.188,-0.625C0.188,-0.607 0.181,-0.592 0.169,-0.579C0.156,-0.566 0.141,-0.56 0.123,-0.56Z" style="fill:white;fill-rule:nonzero;"/>
            </g>
            <g transform="matrix(50,0,0,50,1896.830115,1182.733221)">
                <path d="M0.202,-0C0.171,-0 0.147,-0.008 0.13,-0.023C0.113,-0.039 0.105,-0.063 0.105,-0.094L0.105,-0.412L0.015,-0.412L0.015,-0.5L0.106,-0.5L0.106,-0.65L0.217,-0.65L0.217,-0.5L0.341,-0.5L0.341,-0.412L0.218,-0.412L0.218,-0.089L0.354,-0.089L0.354,-0L0.202,-0Z" style="fill:white;fill-rule:nonzero;"/>
            </g>
            <g transform="matrix(50,0,0,50,1915.538448,1182.733221)">
                <path d="M0.111,-0L0.111,-0.412L0.015,-0.412L0.015,-0.5L0.112,-0.5L0.112,-0.604C0.112,-0.637 0.121,-0.661 0.139,-0.676C0.156,-0.692 0.181,-0.7 0.212,-0.7L0.352,-0.7L0.352,-0.612L0.223,-0.612L0.223,-0.5L0.342,-0.5L0.342,-0.412L0.224,-0.412L0.224,-0L0.111,-0ZM0.423,-0L0.423,-0.5L0.537,-0.5L0.537,-0L0.423,-0ZM0.48,-0.56C0.462,-0.56 0.447,-0.566 0.434,-0.579C0.421,-0.591 0.415,-0.607 0.415,-0.625C0.415,-0.643 0.421,-0.658 0.434,-0.671C0.446,-0.684 0.462,-0.69 0.48,-0.69C0.498,-0.69 0.513,-0.684 0.526,-0.671C0.539,-0.659 0.545,-0.643 0.545,-0.625C0.545,-0.607 0.539,-0.592 0.526,-0.579C0.514,-0.566 0.498,-0.56 0.48,-0.56Z" style="fill:white;fill-rule:nonzero;"/>
            </g>
            <g transform="matrix(50,0,0,50,1915.538448,1182.733221)">
            </g>
            <g transform="matrix(50,0,0,50,1933.413448,1182.733221)">
            </g>
            <g transform="matrix(50,0,0,50,1945.663448,1182.733221)">
                <path d="M0.294,0.01C0.241,0.01 0.195,-0.001 0.156,-0.022C0.117,-0.043 0.087,-0.074 0.066,-0.113C0.045,-0.152 0.034,-0.199 0.034,-0.252C0.034,-0.305 0.044,-0.351 0.065,-0.389C0.086,-0.428 0.116,-0.458 0.154,-0.479C0.193,-0.5 0.238,-0.51 0.29,-0.51C0.34,-0.51 0.383,-0.5 0.419,-0.48C0.455,-0.461 0.483,-0.433 0.503,-0.396C0.523,-0.36 0.533,-0.317 0.533,-0.267L0.533,-0.225L0.143,-0.225C0.147,-0.18 0.162,-0.145 0.188,-0.12C0.215,-0.095 0.25,-0.082 0.293,-0.082C0.325,-0.082 0.352,-0.089 0.372,-0.101C0.393,-0.113 0.407,-0.132 0.415,-0.156L0.53,-0.156C0.518,-0.104 0.491,-0.063 0.45,-0.034C0.409,-0.005 0.357,0.01 0.294,0.01ZM0.146,-0.304L0.424,-0.304C0.419,-0.341 0.406,-0.369 0.382,-0.389C0.359,-0.409 0.328,-0.418 0.29,-0.418C0.251,-0.418 0.22,-0.409 0.195,-0.389C0.17,-0.369 0.154,-0.341 0.146,-0.304Z" style="fill:white;fill-rule:nonzero;"/>
            </g>
            <g transform="matrix(50,0,0,50,1973.996782,1182.733221)">
                <rect x="0.066" y="-0.7" width="0.113" height="0.7" style="fill:white;fill-rule:nonzero;"/>
            </g>
            <g transform="matrix(50,0,0,50,1986.246782,1182.733221)">
                <path d="M0.272,0.01C0.221,0.01 0.178,-0.001 0.143,-0.022C0.107,-0.043 0.08,-0.074 0.062,-0.113C0.043,-0.152 0.034,-0.197 0.034,-0.25C0.034,-0.303 0.043,-0.349 0.061,-0.388C0.079,-0.427 0.105,-0.457 0.139,-0.478C0.174,-0.499 0.214,-0.51 0.262,-0.51C0.3,-0.51 0.334,-0.503 0.362,-0.488C0.39,-0.473 0.411,-0.452 0.426,-0.425L0.429,-0.425L0.429,-0.7L0.542,-0.7L0.542,-0.114L0.6,-0.114L0.6,-0L0.482,-0L0.482,-0.079L0.447,-0.079C0.43,-0.05 0.406,-0.028 0.377,-0.013C0.348,0.002 0.313,0.01 0.272,0.01ZM0.291,-0.088C0.333,-0.088 0.366,-0.1 0.391,-0.123C0.416,-0.147 0.429,-0.179 0.429,-0.22L0.429,-0.28C0.429,-0.321 0.416,-0.353 0.391,-0.377C0.366,-0.4 0.333,-0.412 0.291,-0.412C0.245,-0.412 0.209,-0.398 0.184,-0.369C0.16,-0.34 0.147,-0.301 0.147,-0.25C0.147,-0.199 0.16,-0.16 0.184,-0.131C0.209,-0.102 0.245,-0.088 0.291,-0.088Z" style="fill:white;fill-rule:nonzero;"/>
            </g>
            <g transform="matrix(50,0,0,50,2017.871782,1182.733221)">
            </g>
        </g>
        <g transform="matrix(1,0,0,1.015989,-587.309015,890.00807)">
            <rect x="1726.246" y="1120.723" width="52.155" height="108.656" style="fill:white;"/>
        </g>
        <g transform="matrix(1,0,0,1,-145.729761,898.886119)">
            <path d="M1392.454,1129.763L1336.821,1129.763L1336.821,1077.608L1444.609,1077.608L1444.609,1240.157L1392.454,1240.157L1392.454,1129.763Z" style="fill:white;"/>
        </g>
        <g transform="matrix(0.581886,0,0,0.581886,734.435,1532.416847)">
            <g transform="matrix(50,0,0,50,979.33618,796.918396)">
                <path d="M0.365,-0L0.251,-0L0.251,-0.575L0.02,-0.575L0.02,-0.675L0.597,-0.675L0.597,-0.575L0.365,-0.575L0.365,-0Z" style="fill:white;fill-rule:nonzero;"/>
            </g>
            <g transform="matrix(50,0,0,50,1010.169514,796.918396)">
                <path d="M0.077,-0L0.077,-0.675L0.24,-0.675L0.459,-0.161L0.462,-0.161L0.681,-0.675L0.843,-0.675L0.843,-0L0.727,-0L0.727,-0.524L0.724,-0.524L0.505,-0L0.408,-0L0.189,-0.525L0.186,-0.525L0.186,-0L0.077,-0Z" style="fill:white;fill-rule:nonzero;"/>
            </g>
            <g transform="matrix(50,0,0,50,1056.169514,796.918396)">
            </g>
        </g>
    </g>
</svg>
